<svg xmlns="http://www.w3.org/2000/svg" viewBox="0 0 400 400" width="400" height="400">
  <defs>
    <radialGradient id="bg" cx="50%" cy="50%" r="50%">
      <stop offset="0%" stop-color="#2d5a27"/>
      <stop offset="100%" stop-color="#1a3a14"/>
    </radialGradient>
  </defs>
  <rect width="400" height="400" fill="url(#bg)"/>
  <!-- Ground -->
  <rect x="0" y="300" width="400" height="100" fill="#1a3a14"/>
  <!-- Trees -->
  <polygon points="200,80 160,200 240,200" fill="#3d7a35"/>
  <polygon points="200,120 150,240 250,240" fill="#4a9040"/>
  <rect x="190" y="240" width="20" height="60" fill="#6b4423"/>
  <polygon points="120,120 85,220 155,220" fill="#3d7a35"/>
  <polygon points="120,155 80,255 160,255" fill="#4a9040"/>
  <rect x="112" y="255" width="16" height="45" fill="#6b4423"/>
  <polygon points="280,130 245,230 315,230" fill="#3d7a35"/>
  <polygon points="280,165 240,265 320,265" fill="#4a9040"/>
  <rect x="272" y="265" width="16" height="35" fill="#6b4423"/>
  <!-- Label -->
  <text x="200" y="370" font-family="Arial,sans-serif" font-size="28" font-weight="bold" fill="#a0f080" text-anchor="middle">FOREST</text>
  <!-- Border -->
  <rect x="2" y="2" width="396" height="396" fill="none" stroke="#4a9040" stroke-width="4"/>
</svg>
