<svg xmlns="http://www.w3.org/2000/svg" viewBox="0 0 400 400" width="400" height="400">
  <defs>
    <radialGradient id="sky" cx="50%" cy="50%" r="50%">
      <stop offset="0%" stop-color="#4a1010"/>
      <stop offset="100%" stop-color="#1a0808"/>
    </radialGradient>
    <radialGradient id="lava" cx="50%" cy="50%" r="50%">
      <stop offset="0%" stop-color="#ff8020"/>
      <stop offset="100%" stop-color="#c03000"/>
    </radialGradient>
  </defs>
  <rect width="400" height="400" fill="url(#sky)"/>
  <!-- Volcano body -->
  <polygon points="30,380 200,80 370,380" fill="#2a1010"/>
  <!-- Lava glow at crater -->
  <ellipse cx="200" cy="100" rx="35" ry="15" fill="#ff4000" opacity="0.9"/>
  <!-- Lava flows -->
  <path d="M185,120 Q175,180 165,240 Q155,280 170,320" fill="none" stroke="#ff6020" stroke-width="8" opacity="0.8"/>
  <path d="M215,120 Q228,185 235,250 Q242,285 230,330" fill="none" stroke="#ff4010" stroke-width="7" opacity="0.7"/>
  <!-- Lava pool at base -->
  <ellipse cx="200" cy="370" rx="100" ry="20" fill="url(#lava)" opacity="0.9"/>
  <!-- Smoke/ash -->
  <ellipse cx="190" cy="65" rx="25" ry="15" fill="#504040" opacity="0.7"/>
  <ellipse cx="210" cy="50" rx="20" ry="12" fill="#604040" opacity="0.6"/>
  <ellipse cx="180" cy="40" rx="18" ry="10" fill="#504040" opacity="0.5"/>
  <!-- Embers -->
  <circle cx="160" cy="90" r="4" fill="#ff8020" opacity="0.9"/>
  <circle cx="240" cy="70" r="3" fill="#ff6010" opacity="0.8"/>
  <circle cx="220" cy="50" r="3" fill="#ffaa30" opacity="0.7"/>
  <!-- Label -->
  <text x="200" y="395" font-family="Arial,sans-serif" font-size="24" font-weight="bold" fill="#ff8040" text-anchor="middle">VOLCANIC</text>
  <!-- Border -->
  <rect x="2" y="2" width="396" height="396" fill="none" stroke="#c03000" stroke-width="4"/>
</svg>
